<?xml version="1.0" encoding="utf-8"?>
<!-- Generator: Adobe Illustrator 23.0.0, SVG Export Plug-In . SVG Version: 6.00 Build 0)  -->
<svg version="1.1" xmlns="http://www.w3.org/2000/svg" xmlns:xlink="http://www.w3.org/1999/xlink" x="0px" y="0px"
	 viewBox="0 0 1024 1024" style="enable-background:new 0 0 1024 1024;" xml:space="preserve">
<style type="text/css">
	.st0{fill:#FFFFFF;}
	.st1{fill:#191919;}
	.st2{fill:#333333;}
	.st3{fill:#EFEAEA;}
	.st4{fill:#DBDBDB;}
	.st5{fill:#303030;}
	.st6{fill:#3A3A3A;}
	.st7{fill:#515150;}
	.st8{fill:#020201;}
	.st9{fill:#3A3535;}
	.st10{fill:#161616;}
	.st11{fill:#BCBCBC;}
	.st12{fill:#CCCCCA;}
	.st13{fill:#B2B2B1;}
	.st14{fill:none;stroke:#E5E5DA;stroke-width:2;stroke-miterlimit:10;}
	.st15{fill:none;stroke:#000000;stroke-width:2;stroke-miterlimit:10;}
	.st16{fill:none;stroke:#000000;stroke-width:3;stroke-miterlimit:10;}
	.st17{fill:none;stroke:#ED0000;stroke-width:5;stroke-linecap:round;stroke-miterlimit:10;}
	.st18{fill:#CEC0C0;}
	.st19{fill:none;stroke:#CE0000;stroke-width:3;stroke-linecap:round;stroke-miterlimit:10;}
	.st20{fill:#999999;}
	.st21{fill:#FCFCFC;}
	.st22{fill:#606060;}
	.st23{fill:none;stroke:#828282;stroke-linecap:round;stroke-miterlimit:10;}
	.st24{fill:none;stroke:#000000;stroke-linecap:round;stroke-miterlimit:10;}
	.st25{fill:none;stroke:#777776;stroke-width:3;stroke-linecap:round;stroke-miterlimit:10;}
	.st26{fill:#111010;stroke:#B2B2B2;stroke-width:2;stroke-linecap:round;stroke-miterlimit:10;}
	.st27{fill:none;stroke:#BCBCBC;stroke-linecap:round;stroke-miterlimit:10;}
	.st28{fill:#B2B2B2;}
	.st29{fill:#212121;}
	.st30{fill:#9B9B9B;}
	.st31{fill:none;stroke:#FF0606;stroke-width:4;stroke-linecap:round;stroke-miterlimit:10;}
	.st32{fill:none;stroke:#000000;stroke-width:2;stroke-linecap:round;stroke-miterlimit:10;}
	.st33{fill:none;stroke:#EA0606;stroke-width:4;stroke-linecap:round;stroke-miterlimit:10;}
	.st34{stroke:#727270;stroke-width:3;stroke-linecap:round;stroke-miterlimit:10;}
	.st35{fill:#0F0F0F;stroke:#82827F;stroke-linecap:round;stroke-miterlimit:10;}
	.st36{fill:#141414;stroke:#7C7B7B;stroke-miterlimit:10;}
	.st37{fill:#F7F7F5;}
	.st38{fill:#11110F;}
	.st39{fill:#9E9E9E;}
	.st40{opacity:0.1;fill:#FFFFFF;}
	.st41{opacity:0.2;fill:#FFFFFF;}
	.st42{opacity:0.5;fill:#FFFFFF;}
</style>
<g id="Layer_1">
	<rect y="954" width="1024" height="70"/>
	<g>
		<path class="st0" d="M314.4,974.25h4.52c3.56,0,6.49,0.94,8.79,2.81c2.32,1.86,3.48,4.53,3.48,8.01c0,3.58-1.15,6.32-3.45,8.21
			c-2.3,1.9-5.27,2.84-8.9,2.84h-4.44V974.25z M317.12,993.63h0.95c1.42,0,2.75-0.15,4.01-0.43c1.25-0.28,2.35-0.76,3.29-1.42
			c0.94-0.66,1.69-1.54,2.25-2.61c0.56-1.08,0.84-2.41,0.84-3.99c0-1.56-0.28-2.89-0.83-4.02c-0.55-1.11-1.32-1.98-2.3-2.6
			c-0.99-0.63-2.07-1.1-3.27-1.39c-1.19-0.29-2.51-0.44-3.99-0.44h-0.95V993.63z"/>
		<path class="st0" d="M335.2,989.76c0.04,1.21,0.43,2.27,1.16,3.17c0.76,0.89,1.73,1.33,2.93,1.33c0.95,0,1.73-0.21,2.34-0.65
			c0.61-0.43,1.19-1.1,1.73-1.99l2.2,1.25c-0.64,1.16-1.51,2.06-2.63,2.72c-1.11,0.65-2.34,0.99-3.67,0.99
			c-2.02,0-3.65-0.68-4.87-2.03c-1.2-1.38-1.8-3.08-1.8-5.11c0-2.14,0.57-3.91,1.71-5.29c1.12-1.35,2.75-2.03,4.9-2.03
			c2.09,0,3.66,0.68,4.73,2.03c1.08,1.35,1.62,3.08,1.62,5.2v0.4H335.2z M342.95,987.79c-0.16-1.04-0.55-1.88-1.2-2.48
			c-0.65-0.6-1.49-0.92-2.54-0.92c-0.5,0-0.97,0.09-1.4,0.26c-0.44,0.16-0.82,0.4-1.17,0.7c-0.33,0.32-0.61,0.69-0.83,1.1
			c-0.22,0.41-0.37,0.87-0.45,1.35H342.95z"/>
		<path class="st0" d="M353.25,985.65c-0.39-0.8-0.97-1.19-1.74-1.19c-0.36,0-0.7,0.12-0.99,0.39c-0.29,0.26-0.43,0.59-0.43,0.95
			c0,0.35,0.11,0.64,0.33,0.88c0.22,0.24,0.52,0.47,0.91,0.69c0.26,0.11,0.45,0.21,0.58,0.27c0.13,0.07,0.36,0.17,0.67,0.31
			c0.15,0.08,0.29,0.15,0.41,0.18c0.11,0.04,0.2,0.07,0.25,0.12c0.97,0.44,1.73,0.96,2.29,1.53c0.56,0.59,0.84,1.36,0.84,2.33
			c0,1.28-0.46,2.35-1.39,3.22c-0.91,0.86-2,1.28-3.28,1.28c-0.52,0-1.02-0.08-1.5-0.22c-0.49-0.14-0.94-0.35-1.35-0.61
			c-0.42-0.27-0.78-0.58-1.11-0.95c-0.31-0.38-0.57-0.8-0.73-1.27l2.23-1.01c0.63,1.16,1.46,1.74,2.46,1.74
			c0.41,0,0.79-0.11,1.14-0.33c0.35-0.22,0.6-0.51,0.77-0.85c0.16-0.34,0.2-0.7,0.1-1.1c-0.1-0.4-0.4-0.78-0.9-1.12l-2.56-1.37
			c-0.45-0.23-0.83-0.45-1.16-0.69c-0.33-0.24-0.6-0.49-0.81-0.75c-0.21-0.27-0.37-0.55-0.48-0.87c-0.11-0.32-0.16-0.69-0.16-1.13
			c0-1.1,0.39-2.02,1.17-2.78c0.77-0.77,1.72-1.16,2.84-1.16c1.7,0,2.94,0.8,3.71,2.38L353.25,985.65z"/>
		<path class="st0" d="M362.62,976.33c0,0.49-0.17,0.9-0.53,1.26c-0.34,0.34-0.77,0.5-1.27,0.5c-0.51,0-0.93-0.16-1.28-0.5
			c-0.35-0.36-0.52-0.77-0.52-1.26c0-0.5,0.17-0.93,0.52-1.3c0.35-0.36,0.77-0.53,1.28-0.53c0.5,0,0.93,0.17,1.27,0.53
			C362.45,975.4,362.62,975.83,362.62,976.33z M362.12,996.12h-2.61v-13.58h2.61V996.12z"/>
		<path class="st0" d="M379.02,995.86c0,2.55-0.49,4.52-1.46,5.94c-0.96,1.4-2.69,2.09-5.16,2.09c-1.91,0-3.48-0.55-4.7-1.66
			c-1.2-1.1-1.82-2.6-1.86-4.49h2.61c0,1.21,0.38,2.15,1.12,2.83c0.74,0.67,1.73,1,2.95,1c1.49,0,2.51-0.44,3.06-1.31
			c0.55-0.87,0.82-2.1,0.82-3.68V994h-0.05c-0.55,0.82-1.21,1.45-2.02,1.9c-0.81,0.46-1.67,0.69-2.6,0.69
			c-2.01,0-3.6-0.71-4.76-2.12c-1.16-1.41-1.74-3.16-1.74-5.22c0-1.96,0.59-3.62,1.77-4.99c1.19-1.41,2.72-2.12,4.61-2.12
			c2,0,3.57,0.91,4.73,2.73h0.05v-2.33h2.62V995.86z M372.14,994.26c1.37,0,2.44-0.47,3.22-1.42c0.79-0.96,1.19-2.14,1.19-3.51
			c0-1.35-0.39-2.5-1.19-3.46c-0.77-0.94-1.85-1.41-3.22-1.41c-1.3,0-2.34,0.47-3.14,1.45c-0.77,0.95-1.16,2.08-1.16,3.42
			c0,1.37,0.39,2.54,1.16,3.48C369.8,993.78,370.84,994.26,372.14,994.26z"/>
		<path class="st0" d="M385.03,984.36h0.05c0.39-0.71,0.96-1.27,1.69-1.65c0.73-0.39,1.54-0.58,2.41-0.58c0.89,0,1.64,0.14,2.26,0.4
			c0.62,0.27,1.12,0.66,1.5,1.16c0.38,0.5,0.65,1.12,0.81,1.84c0.17,0.73,0.25,1.55,0.25,2.49v8.09h-2.6v-7.77
			c0-1.34-0.2-2.31-0.59-2.93c-0.39-0.64-1.19-0.95-2.41-0.95c-0.45,0-0.82,0.04-1.13,0.12c-0.31,0.09-0.58,0.22-0.81,0.37
			c-0.23,0.17-0.42,0.37-0.58,0.57c-0.15,0.21-0.3,0.45-0.43,0.71c-0.06,0.13-0.12,0.3-0.16,0.52c-0.05,0.21-0.09,0.43-0.13,0.66
			c-0.04,0.22-0.08,0.44-0.09,0.66c-0.02,0.23-0.02,0.4-0.02,0.54v1.28v6.23h-2.62v-13.58h2.62V984.36z"/>
		<path class="st0" d="M405.77,970.93h2.61v13.87h0.05c1.2-1.77,2.78-2.67,4.73-2.67c1.9,0,3.43,0.71,4.62,2.12
			c1.18,1.37,1.77,3.03,1.77,4.99c0,2.06-0.59,3.81-1.74,5.22c-1.17,1.41-2.75,2.12-4.76,2.12c-0.93,0-1.8-0.23-2.6-0.69
			c-0.8-0.45-1.47-1.09-2.02-1.9h-0.05v2.12h-2.61V970.93z M412.52,994.26c1.38,0,2.45-0.47,3.23-1.42
			c0.79-0.96,1.18-2.14,1.18-3.51c0-1.35-0.39-2.5-1.18-3.46c-0.78-0.94-1.85-1.41-3.23-1.41c-1.3,0-2.34,0.47-3.13,1.45
			c-0.78,0.95-1.16,2.08-1.16,3.42c0,1.37,0.38,2.54,1.16,3.48C410.18,993.78,411.23,994.26,412.52,994.26z"/>
		<path class="st0" d="M419.93,982.54h3.04l4.58,8.62l4.26-8.62h2.94l-11,21.36h-2.96l5.34-10.1L419.93,982.54z"/>
		<path class="st0" d="M447.93,990.63l-2.5,5.49h-2.93l10.45-22.81l10.44,22.81h-2.92l-2.49-5.49H447.93z M452.95,979.29l-3.9,8.85
			h7.78L452.95,979.29z"/>
		<path class="st0" d="M467.66,996.12h-2.61v-25.19h2.61V996.12z"/>
		<path class="st0" d="M474.1,996.12h-2.61v-25.19h2.61V996.12z"/>
		<path class="st0" d="M484.02,985.74v2.17h-6.36v-2.17H484.02z"/>
		<path class="st0" d="M494.17,973.57c-0.81-0.37-1.38-0.55-1.73-0.55c-0.57,0-0.97,0.17-1.22,0.53c-0.26,0.36-0.43,0.79-0.52,1.32
			c-0.06,0.38-0.09,0.69-0.11,0.91c0,0.23,0,0.53,0,0.92v5.82h3.58v2.44h-3.58v11.15h-2.62v-11.15h-1.18v-2.44h1.18v-6.61
			c0-3.56,1.47-5.35,4.39-5.35c0.64,0,1.24,0.13,1.81,0.35V973.57z"/>
		<path class="st0" d="M498.2,984.74h0.09c0.33-0.81,0.81-1.45,1.46-1.91c0.64-0.46,1.39-0.7,2.26-0.7c0.72,0,1.43,0.22,2.16,0.67
			l-1.19,2.38c-0.43-0.38-0.96-0.55-1.6-0.55c-1.35,0-2.23,0.54-2.67,1.62c-0.2,0.5-0.33,1-0.39,1.49c-0.06,0.48-0.11,1.06-0.11,1.7
			v6.67h-2.6v-13.58h2.6V984.74z"/>
		<path class="st0" d="M507.18,989.76c0.03,1.21,0.42,2.27,1.16,3.17c0.75,0.89,1.72,1.33,2.92,1.33c0.94,0,1.73-0.21,2.34-0.65
			c0.61-0.43,1.19-1.1,1.72-1.99l2.2,1.25c-0.63,1.16-1.51,2.06-2.62,2.72c-1.11,0.65-2.34,0.99-3.67,0.99
			c-2.03,0-3.65-0.68-4.87-2.03c-1.2-1.38-1.8-3.08-1.8-5.11c0-2.14,0.57-3.91,1.71-5.29c1.12-1.35,2.75-2.03,4.9-2.03
			c2.09,0,3.67,0.68,4.74,2.03c1.07,1.35,1.61,3.08,1.61,5.2v0.4H507.18z M514.93,987.79c-0.16-1.04-0.56-1.88-1.2-2.48
			c-0.65-0.6-1.49-0.92-2.54-0.92c-0.5,0-0.97,0.09-1.41,0.26c-0.43,0.16-0.82,0.4-1.15,0.7c-0.34,0.32-0.63,0.69-0.86,1.1
			c-0.22,0.41-0.37,0.87-0.44,1.35H514.93z"/>
		<path class="st0" d="M521.35,989.76c0.03,1.21,0.42,2.27,1.15,3.17c0.75,0.89,1.73,1.33,2.93,1.33c0.95,0,1.73-0.21,2.33-0.65
			c0.61-0.43,1.18-1.1,1.73-1.99l2.2,1.25c-0.63,1.16-1.49,2.06-2.62,2.72c-1.12,0.65-2.33,0.99-3.67,0.99
			c-2.04,0-3.66-0.68-4.88-2.03c-1.19-1.38-1.79-3.08-1.79-5.11c0-2.14,0.56-3.91,1.71-5.29c1.12-1.35,2.76-2.03,4.9-2.03
			c2.08,0,3.66,0.68,4.72,2.03c1.09,1.35,1.63,3.08,1.63,5.2v0.4H521.35z M529.09,987.79c-0.15-1.04-0.56-1.88-1.22-2.48
			c-0.64-0.6-1.48-0.92-2.53-0.92c-0.51,0-0.97,0.09-1.41,0.26c-0.43,0.16-0.81,0.4-1.15,0.7c-0.34,0.32-0.63,0.69-0.84,1.1
			c-0.23,0.41-0.38,0.87-0.46,1.35H529.09z"/>
		<path class="st0" d="M540.14,985.74v2.17h-6.36v-2.17H540.14z"/>
		<path class="st0" d="M553.69,994h-0.06c-0.54,0.82-1.21,1.45-2.01,1.9c-0.81,0.46-1.68,0.69-2.6,0.69c-2.01,0-3.6-0.71-4.75-2.12
			c-1.17-1.41-1.75-3.16-1.75-5.22c0-1.96,0.59-3.62,1.78-4.99c1.18-1.41,2.72-2.12,4.61-2.12c1.95,0,3.53,0.89,4.73,2.67h0.06
			v-13.87h2.6v25.19h-2.6V994z M549.42,994.26c1.37,0,2.45-0.47,3.22-1.42c0.79-0.96,1.2-2.14,1.2-3.51c0-1.35-0.4-2.5-1.2-3.46
			c-0.77-0.94-1.85-1.41-3.22-1.41c-1.3,0-2.34,0.47-3.13,1.45c-0.77,0.95-1.16,2.08-1.16,3.42c0,1.37,0.39,2.54,1.16,3.48
			C547.08,993.78,548.13,994.26,549.42,994.26z"/>
		<path class="st0" d="M560.57,984.22c1.41-1.39,3.14-2.09,5.17-2.09c2.03,0,3.74,0.7,5.12,2.09c1.42,1.38,2.12,3.12,2.12,5.14
			c0,2.03-0.7,3.74-2.12,5.15c-1.38,1.38-3.09,2.08-5.12,2.08c-2.04,0-3.76-0.7-5.17-2.08c-1.39-1.41-2.09-3.12-2.09-5.15
			C558.47,987.34,559.17,985.6,560.57,984.22z M561.08,989.36c0,1.25,0.47,2.36,1.38,3.32c0.89,0.95,1.99,1.4,3.28,1.4
			c1.27,0,2.37-0.46,3.27-1.4c0.91-0.96,1.36-2.07,1.36-3.32c0-1.28-0.45-2.4-1.36-3.34c-0.9-0.93-2-1.39-3.27-1.39
			c-1.29,0-2.4,0.46-3.28,1.39C561.55,986.96,561.08,988.08,561.08,989.36z"/>
		<path class="st0" d="M580.01,991.19l3.99-9.41l3.98,9.41l3.95-8.66h2.95l-6.9,14.05l-3.98-9.08l-3.99,9.08l-6.91-14.05h2.96
			L580.01,991.19z"/>
		<path class="st0" d="M598.81,984.36h0.06c0.38-0.71,0.94-1.27,1.68-1.65c0.74-0.39,1.54-0.58,2.41-0.58c0.89,0,1.65,0.14,2.27,0.4
			c0.62,0.27,1.11,0.66,1.49,1.16c0.38,0.5,0.65,1.12,0.8,1.84c0.17,0.73,0.25,1.55,0.25,2.49v8.09h-2.61v-7.77
			c0-1.34-0.18-2.31-0.58-2.93c-0.39-0.64-1.18-0.95-2.42-0.95c-0.44,0-0.81,0.04-1.13,0.12c-0.3,0.09-0.58,0.22-0.81,0.37
			c-0.23,0.17-0.42,0.37-0.58,0.57c-0.16,0.21-0.3,0.45-0.43,0.71c-0.06,0.13-0.12,0.3-0.16,0.52c-0.05,0.21-0.1,0.43-0.13,0.66
			c-0.04,0.22-0.06,0.44-0.1,0.66c-0.01,0.23-0.02,0.4-0.02,0.54v1.28v6.23h-2.61v-13.58h2.61V984.36z"/>
		<path class="st0" d="M614.1,996.12h-2.62v-25.19h2.62V996.12z"/>
		<path class="st0" d="M618.69,984.22c1.4-1.39,3.13-2.09,5.17-2.09c2.03,0,3.73,0.7,5.14,2.09c1.4,1.38,2.1,3.12,2.1,5.14
			c0,2.03-0.7,3.74-2.1,5.15c-1.41,1.38-3.11,2.08-5.14,2.08c-2.04,0-3.77-0.7-5.17-2.08c-1.4-1.41-2.09-3.12-2.09-5.15
			C616.59,987.34,617.28,985.6,618.69,984.22z M619.21,989.36c0,1.25,0.46,2.36,1.36,3.32c0.89,0.95,1.99,1.4,3.29,1.4
			c1.27,0,2.36-0.46,3.28-1.4c0.9-0.96,1.35-2.07,1.35-3.32c0-1.28-0.45-2.4-1.35-3.34c-0.92-0.93-2.01-1.39-3.28-1.39
			c-1.3,0-2.4,0.46-3.29,1.39C619.67,986.96,619.21,988.08,619.21,989.36z"/>
		<path class="st0" d="M646.23,996.12h-2.62V994h-0.06c-1.16,1.72-2.7,2.59-4.62,2.59c-1.99,0-3.58-0.71-4.76-2.12
			c-1.16-1.41-1.74-3.16-1.74-5.22c0-1.96,0.58-3.62,1.77-4.99c1.18-1.41,2.73-2.12,4.63-2.12c1.94,0,3.51,0.89,4.71,2.67h0.06
			v-2.26h2.62V996.12z M639.34,994.26c1.38,0,2.45-0.47,3.22-1.42c0.79-0.96,1.19-2.14,1.19-3.51c0-1.35-0.4-2.5-1.19-3.46
			c-0.78-0.94-1.84-1.41-3.22-1.41c-1.29,0-2.34,0.47-3.13,1.45c-0.78,0.95-1.17,2.08-1.17,3.42c0,1.37,0.39,2.54,1.17,3.48
			C637,993.78,638.05,994.26,639.34,994.26z"/>
		<path class="st0" d="M659.74,994h-0.05c-0.55,0.82-1.23,1.45-2.02,1.9c-0.8,0.46-1.67,0.69-2.6,0.69c-2.02,0-3.61-0.71-4.77-2.12
			c-1.16-1.41-1.74-3.16-1.74-5.22c0-1.96,0.6-3.62,1.77-4.99c1.18-1.41,2.72-2.12,4.62-2.12c1.95,0,3.52,0.89,4.73,2.67h0.05
			v-13.87h2.62v25.19h-2.62V994z M655.48,994.26c1.37,0,2.44-0.47,3.21-1.42c0.79-0.96,1.19-2.14,1.19-3.51
			c0-1.35-0.4-2.5-1.19-3.46c-0.78-0.94-1.84-1.41-3.21-1.41c-1.3,0-2.34,0.47-3.13,1.45c-0.77,0.95-1.16,2.08-1.16,3.42
			c0,1.37,0.39,2.54,1.16,3.48C653.13,993.78,654.18,994.26,655.48,994.26z"/>
		<path class="st0" d="M669.84,994.9c0,0.47-0.16,0.86-0.48,1.19c-0.34,0.33-0.74,0.5-1.21,0.5c-0.47,0-0.86-0.17-1.18-0.5
			c-0.34-0.33-0.5-0.72-0.5-1.19c0-0.44,0.16-0.84,0.5-1.18c0.32-0.33,0.71-0.5,1.18-0.5c0.46,0,0.86,0.17,1.21,0.5
			C669.68,994.06,669.84,994.45,669.84,994.9z"/>
		<path class="st0" d="M684.11,986.39c-1.08-1.22-2.38-1.83-3.88-1.83c-1.26,0-2.34,0.48-3.23,1.42c-0.88,0.96-1.29,2.09-1.29,3.34
			c0,1.42,0.42,2.57,1.29,3.45c0.91,0.92,2.04,1.37,3.39,1.37c1.39,0,2.64-0.62,3.72-1.8v3.33c-1.12,0.6-2.37,0.91-3.74,0.91
			c-2.02,0-3.74-0.7-5.17-2.07c-1.41-1.34-2.1-3.04-2.1-5.07c0-2.09,0.69-3.84,2.1-5.23c1.42-1.39,3.19-2.09,5.32-2.09
			c1.4,0,2.6,0.3,3.6,0.89V986.39z"/>
		<path class="st0" d="M687.8,984.22c1.41-1.39,3.14-2.09,5.16-2.09c2.03,0,3.75,0.7,5.13,2.09c1.42,1.38,2.12,3.12,2.12,5.14
			c0,2.03-0.7,3.74-2.12,5.15c-1.38,1.38-3.1,2.08-5.13,2.08c-2.03,0-3.75-0.7-5.16-2.08c-1.39-1.41-2.09-3.12-2.09-5.15
			C685.71,987.34,686.41,985.6,687.8,984.22z M688.33,989.36c0,1.25,0.45,2.36,1.37,3.32c0.87,0.95,1.98,1.4,3.27,1.4
			c1.27,0,2.38-0.46,3.28-1.4c0.91-0.96,1.36-2.07,1.36-3.32c0-1.28-0.45-2.4-1.36-3.34c-0.9-0.93-2-1.39-3.28-1.39
			c-1.29,0-2.4,0.46-3.27,1.39C688.78,986.96,688.33,988.08,688.33,989.36z"/>
		<path class="st0" d="M705.13,984.25h0.06c0.39-0.62,0.89-1.12,1.55-1.52c0.65-0.4,1.33-0.6,2.04-0.6c1.69,0,2.99,0.8,3.93,2.41
			c0.42-0.73,1.01-1.32,1.76-1.77c0.74-0.43,1.55-0.65,2.41-0.65c3.01,0,4.5,1.96,4.5,5.86v8.13h-2.61v-7.69
			c0-0.34-0.01-0.69-0.05-1.02c-0.02-0.35-0.08-0.68-0.15-0.99c-0.08-0.33-0.19-0.63-0.35-0.9c-0.16-0.26-0.38-0.51-0.64-0.72
			c-0.35-0.23-0.8-0.34-1.33-0.34c-0.55,0-1.01,0.11-1.39,0.34c-0.38,0.21-0.66,0.48-0.86,0.79c-0.21,0.32-0.37,0.73-0.47,1.21
			c-0.12,0.48-0.19,0.92-0.22,1.31c-0.03,0.38-0.04,0.83-0.04,1.34v6.67h-2.62v-7.2c0-0.46,0-0.84-0.02-1.15
			c-0.03-0.32-0.08-0.7-0.18-1.16c-0.09-0.51-0.21-0.87-0.37-1.11c-0.16-0.27-0.4-0.5-0.72-0.72c-0.34-0.21-0.73-0.31-1.19-0.31
			c-1.33,0-2.2,0.57-2.59,1.73c-0.17,0.56-0.29,1.05-0.35,1.55c-0.06,0.47-0.08,1.04-0.08,1.71v6.67h-2.62v-13.58h2.62V984.25z"/>
	</g>
	<g>
		<g>
			<path d="M336.42,762.4c-0.5,0-0.95-0.2-1.35-0.6l-8.17-11.63v24.31c0,1.5-0.6,2.26-1.8,2.26s-1.8-0.7-1.8-2.1v-28.32
				c0-1.44,0.57-2.16,1.7-2.16c0.73,0,1.37,0.38,1.9,1.15l9.52,13.33l9.57-13.33c0.53-0.77,1.15-1.15,1.85-1.15
				c1.17,0,1.75,0.72,1.75,2.16v28.32c0,1.4-0.62,2.1-1.85,2.1c-1.17,0-1.75-0.75-1.75-2.26v-24.31l-8.17,11.63
				C337.42,762.2,336.95,762.4,336.42,762.4z"/>
			<path d="M356.82,777.19c-0.37,0-0.76-0.13-1.18-0.4c-0.42-0.27-0.63-0.7-0.63-1.3c0-0.33,0.05-0.65,0.15-0.95l12.08-30.52h3.71
				l12.08,30.52c0.1,0.3,0.15,0.62,0.15,0.95c0,0.6-0.21,1.04-0.63,1.3c-0.42,0.27-0.81,0.4-1.18,0.4c-0.87,0-1.49-0.47-1.85-1.4
				l-3.46-8.87h-13.93l-3.46,8.87C358.27,776.72,357.65,777.19,356.82,777.19z M363.58,763.3h11.03l-5.56-13.58L363.58,763.3z"/>
			<path d="M393.65,752.58c0,1.14,0.25,2.13,0.75,2.98s1.12,1.36,1.85,1.53l13.78,2.46c2.44,0.47,4.19,1.51,5.26,3.13
				c1.07,1.62,1.6,3.52,1.6,5.69c0,2.34-0.74,4.33-2.21,5.96c-1.47,1.64-3.89,2.46-7.27,2.46h-4.81c-4.41,0-7.61-0.63-9.6-1.9
				c-1.99-1.27-2.98-3.81-2.98-7.62c0-1.44,0.63-2.15,1.9-2.15c0.53,0,0.96,0.2,1.28,0.6c0.32,0.4,0.48,0.92,0.48,1.55
				c0,2.57,0.58,4.2,1.73,4.89c1.15,0.68,3.55,1.03,7.19,1.03h5.91c1.74,0,2.96-0.53,3.68-1.58c0.72-1.05,1.08-2.18,1.08-3.38
				c0-1.5-0.3-2.7-0.9-3.58c-0.6-0.89-1.17-1.39-1.7-1.53l-13.68-2.56c-2.51-0.5-4.29-1.39-5.36-2.68c-1.07-1.29-1.6-3.1-1.6-5.44
				c0-1.07,0.16-2.05,0.48-2.96c0.32-0.9,0.84-1.78,1.58-2.63c0.73-0.85,1.81-1.52,3.23-2c1.42-0.48,3.11-0.73,5.09-0.73h3.81
				c2.24,0,4.07,0.12,5.49,0.35c1.42,0.23,2.71,0.68,3.88,1.33c1.17,0.65,2.01,1.61,2.53,2.88c0.52,1.27,0.78,2.89,0.78,4.86
				c0,0.77-0.19,1.32-0.58,1.65c-0.38,0.33-0.81,0.5-1.28,0.5c-0.53,0-0.97-0.2-1.3-0.6c-0.33-0.4-0.5-0.92-0.5-1.55
				c0-2.57-0.57-4.18-1.7-4.84c-1.14-0.65-3.58-0.98-7.32-0.98h-5.31c-1.94,0-3.3,0.52-4.08,1.55
				C394.04,750.31,393.65,751.41,393.65,752.58z"/>
			<path d="M427.53,760.25v12.53h19.45c1.47,0,2.21,0.63,2.21,1.9c0,1.14-0.74,1.7-2.21,1.7h-21.35c-1.14,0-1.7-0.74-1.7-2.21
				v-27.71c0-1.47,0.57-2.21,1.7-2.21h21.35c1.47,0,2.21,0.63,2.21,1.9c0,1.14-0.74,1.7-2.21,1.7h-19.45v8.77h13.28
				c1.67,0,2.51,0.63,2.51,1.9c0,1.14-0.84,1.7-2.51,1.7H427.53z"/>
			<path d="M475.44,759.55c1.04,1.27,2.04,3.13,3.01,5.59c0.97,2.46,1.68,4.58,2.13,6.36s0.68,2.86,0.68,3.23
				c0,0.53-0.18,1-0.53,1.4c-0.35,0.4-0.79,0.6-1.33,0.6c-0.57,0-0.99-0.2-1.28-0.6c-0.28-0.4-0.44-0.87-0.48-1.4
				c-0.03-0.57-0.28-1.69-0.73-3.36s-1.25-3.69-2.41-6.06c-1.15-2.37-2.45-4.06-3.88-5.06h-9.32v14.48c0,1.34-0.62,2-1.85,2
				c-1.17,0-1.75-0.67-1.75-2v-28.52c0-1.47,0.57-2.21,1.7-2.21h9.42c4.08,0,7.1,0.58,9.07,1.73c1.97,1.15,2.96,3.27,2.96,6.34
				C480.85,756.02,479.05,758.51,475.44,759.55z M461.31,747.87v8.77h7.52c3.27,0,5.5-0.28,6.67-0.85c1.17-0.57,1.75-1.75,1.75-3.56
				c0-1.8-0.6-2.98-1.8-3.53c-1.2-0.55-3.41-0.83-6.62-0.83H461.31z"/>
			<path d="M487.87,777.19c-0.37,0-0.76-0.13-1.18-0.4c-0.42-0.27-0.63-0.7-0.63-1.3c0-0.33,0.05-0.65,0.15-0.95l12.08-30.52H502
				l12.08,30.52c0.1,0.3,0.15,0.62,0.15,0.95c0,0.6-0.21,1.04-0.63,1.3c-0.42,0.27-0.81,0.4-1.18,0.4c-0.87,0-1.49-0.47-1.85-1.4
				l-3.46-8.87h-13.93l-3.46,8.87C489.32,776.72,488.7,777.19,487.87,777.19z M494.64,763.3h11.03l-5.56-13.58L494.64,763.3z"/>
			<path d="M540.79,744.01c1.44,0,2.15,0.62,2.15,1.85c0,1.17-0.72,1.75-2.15,1.75h-7.42v27.11c0,0.7-0.23,1.21-0.68,1.53
				s-0.94,0.48-1.48,0.48c-0.53,0-1-0.15-1.4-0.45c-0.4-0.3-0.6-0.82-0.6-1.55v-27.11h-7.52c-0.77,0-1.32-0.18-1.65-0.55
				c-0.33-0.37-0.5-0.79-0.5-1.25s0.17-0.89,0.5-1.25c0.33-0.37,0.89-0.55,1.65-0.55H540.79z"/>
			<path d="M553.52,774.73c0,1.34-0.62,2-1.85,2c-1.17,0-1.75-0.67-1.75-2v-28.52c0-1.37,0.6-2.05,1.8-2.05s1.8,0.68,1.8,2.05
				V774.73z"/>
			<path d="M595.62,762.4c-0.5,0-0.95-0.2-1.35-0.6l-8.17-11.63v24.31c0,1.5-0.6,2.26-1.8,2.26c-1.2,0-1.8-0.7-1.8-2.1v-28.32
				c0-1.44,0.57-2.16,1.7-2.16c0.74,0,1.37,0.38,1.9,1.15l9.52,13.33l9.57-13.33c0.53-0.77,1.15-1.15,1.85-1.15
				c1.17,0,1.75,0.72,1.75,2.16v28.32c0,1.4-0.62,2.1-1.85,2.1c-1.17,0-1.75-0.75-1.75-2.26v-24.31l-8.17,11.63
				C596.62,762.2,596.15,762.4,595.62,762.4z"/>
			<path d="M637.02,776.38h-7.07c-4.51,0-7.75-0.63-9.72-1.88c-1.97-1.25-2.96-3.7-2.96-7.34v-13.93c0-3.64,0.95-6.09,2.86-7.34
				c1.9-1.25,4.88-1.88,8.92-1.88h7.97c2.17,0,3.63,0.56,4.39,1.68c0.75,1.12,1.13,2.6,1.13,4.44c0,1.5-0.6,2.26-1.8,2.26
				c-0.47,0-0.89-0.17-1.25-0.5c-0.37-0.33-0.55-0.89-0.55-1.65c0-1-0.15-1.69-0.45-2.05c-0.3-0.37-0.9-0.55-1.8-0.55h-7.62
				c-3.24,0-5.41,0.33-6.52,1c-1.1,0.67-1.65,2.24-1.65,4.71v13.73c0,2.51,0.58,4.08,1.75,4.74c1.17,0.65,3.61,0.98,7.32,0.98h6.72
				c0.9,0,1.5-0.18,1.8-0.55s0.45-1.05,0.45-2.05c0-0.77,0.18-1.32,0.55-1.65c0.37-0.33,0.79-0.5,1.25-0.5c1.2,0,1.8,0.77,1.8,2.31
				c0,1.84-0.38,3.31-1.13,4.41C640.65,775.83,639.19,776.38,637.02,776.38z"/>
			<path d="M676.31,753.53c0,1.67-0.71,3.17-2.13,4.51c-1.42,1.34-3.16,2.5-5.21,3.48c-2.05,0.99-4.13,1.98-6.21,2.98
				c-2.09,1-3.91,2.23-5.46,3.68c-1.55,1.45-2.41,3.07-2.58,4.84h19.34c1.5,0,2.26,0.62,2.26,1.85c0,1.17-0.75,1.75-2.26,1.75H651.1
				v-2.86c0-2.34,0.74-4.42,2.23-6.24c1.49-1.82,3.29-3.28,5.41-4.39c2.12-1.1,4.23-2.11,6.34-3.03c2.1-0.92,3.9-1.91,5.39-2.98
				c1.49-1.07,2.23-2.24,2.23-3.51c0-2.51-0.55-4.09-1.65-4.76c-1.1-0.67-3.26-1-6.46-1h-7.67c-0.87,0-1.45,0.17-1.75,0.5
				c-0.3,0.33-0.45,1-0.45,2c0,1.5-0.62,2.26-1.85,2.26c-1.17,0-1.75-0.75-1.75-2.26c0-2.21,0.43-3.78,1.3-4.71
				c0.87-0.94,2.26-1.4,4.16-1.4h8.02c4.04,0,7.01,0.63,8.9,1.9C675.36,747.43,676.31,749.89,676.31,753.53z"/>
			<path d="M710.09,768.47c0,2.41-0.91,4.37-2.73,5.89c-1.82,1.52-4.15,2.28-6.99,2.28h-5.81c-2.84,0-5.17-0.76-6.99-2.28
				c-1.82-1.52-2.73-3.48-2.73-5.89v-16.04c0-2.41,0.91-4.37,2.73-5.89c1.82-1.52,4.15-2.28,6.99-2.28h5.81
				c2.84,0,5.17,0.76,6.99,2.28c1.82,1.52,2.73,3.48,2.73,5.89V768.47z M688.44,751.78v17.39c0,0.9,0.53,1.77,1.58,2.61
				s2.38,1.25,3.98,1.25h6.92c1.6,0,2.93-0.42,3.98-1.25c1.05-0.84,1.58-1.7,1.58-2.61v-17.39c0-0.9-0.53-1.77-1.58-2.61
				c-1.05-0.84-2.38-1.25-3.98-1.25H694c-1.6,0-2.93,0.42-3.98,1.25S688.44,750.87,688.44,751.78z"/>
			<path d="M454.88,808.52c0.98,0,1.47,0.42,1.47,1.27c0,0.36-0.14,0.64-0.42,0.85s-0.63,0.32-1.05,0.32h-8.19
				c-0.91,0-1.37-0.41-1.37-1.24c0-0.29,0.11-0.56,0.32-0.82s0.56-0.38,1.05-0.38H454.88z"/>
			<path d="M491.33,802.2c0,1.11-0.47,2.12-1.42,3.01c-0.95,0.89-2.1,1.66-3.47,2.32c-1.37,0.66-2.75,1.32-4.14,1.99
				s-2.61,1.49-3.64,2.46s-1.61,2.04-1.72,3.22h12.9c1,0,1.5,0.41,1.5,1.24c0,0.78-0.5,1.17-1.5,1.17h-15.3v-1.9
				c0-1.56,0.5-2.95,1.49-4.16s2.19-2.19,3.61-2.92s2.82-1.41,4.23-2.02s2.6-1.28,3.59-1.99c0.99-0.71,1.49-1.49,1.49-2.34
				c0-1.67-0.37-2.73-1.1-3.17c-0.74-0.45-2.17-0.67-4.31-0.67h-5.11c-0.58,0-0.97,0.11-1.17,0.33c-0.2,0.22-0.3,0.67-0.3,1.34
				c0,1-0.41,1.5-1.24,1.5c-0.78,0-1.17-0.5-1.17-1.5c0-1.47,0.29-2.52,0.87-3.14s1.5-0.94,2.77-0.94h5.35
				c2.7,0,4.67,0.42,5.93,1.27C490.7,798.14,491.33,799.78,491.33,802.2z"/>
			<path d="M513.85,812.16c0,1.6-0.61,2.91-1.82,3.93c-1.21,1.01-2.77,1.52-4.66,1.52h-3.88c-1.89,0-3.45-0.51-4.66-1.52
				c-1.21-1.01-1.82-2.32-1.82-3.93v-10.69c0-1.6,0.61-2.91,1.82-3.93c1.21-1.01,2.77-1.52,4.66-1.52h3.88
				c1.89,0,3.45,0.51,4.66,1.52c1.21,1.01,1.82,2.32,1.82,3.93V812.16z M499.41,801.03v11.59c0,0.6,0.35,1.18,1.05,1.74
				c0.7,0.56,1.59,0.84,2.66,0.84h4.61c1.07,0,1.95-0.28,2.66-0.84c0.7-0.56,1.05-1.14,1.05-1.74v-11.59c0-0.6-0.35-1.18-1.05-1.74
				s-1.59-0.84-2.66-0.84h-4.61c-1.07,0-1.95,0.28-2.66,0.84S499.41,800.43,499.41,801.03z"/>
			<path d="M536.37,802.2c0,1.11-0.47,2.12-1.42,3.01c-0.95,0.89-2.1,1.66-3.47,2.32c-1.37,0.66-2.75,1.32-4.14,1.99
				c-1.39,0.67-2.61,1.49-3.64,2.46c-1.04,0.97-1.61,2.04-1.72,3.22h12.9c1,0,1.5,0.41,1.5,1.24c0,0.78-0.5,1.17-1.5,1.17h-15.3
				v-1.9c0-1.56,0.5-2.95,1.49-4.16s2.19-2.19,3.61-2.92c1.41-0.74,2.82-1.41,4.23-2.02s2.6-1.28,3.59-1.99s1.49-1.49,1.49-2.34
				c0-1.67-0.37-2.73-1.1-3.17c-0.74-0.45-2.17-0.67-4.31-0.67h-5.11c-0.58,0-0.97,0.11-1.17,0.33c-0.2,0.22-0.3,0.67-0.3,1.34
				c0,1-0.41,1.5-1.24,1.5c-0.78,0-1.17-0.5-1.17-1.5c0-1.47,0.29-2.52,0.87-3.14s1.5-0.94,2.77-0.94h5.35
				c2.7,0,4.67,0.42,5.93,1.27C535.74,798.14,536.37,799.78,536.37,802.2z"/>
			<path d="M558.88,802.2c0,1.11-0.47,2.12-1.42,3.01c-0.95,0.89-2.1,1.66-3.47,2.32c-1.37,0.66-2.75,1.32-4.14,1.99
				c-1.39,0.67-2.61,1.49-3.64,2.46c-1.04,0.97-1.61,2.04-1.72,3.22h12.9c1,0,1.5,0.41,1.5,1.24c0,0.78-0.5,1.17-1.5,1.17h-15.3
				v-1.9c0-1.56,0.5-2.95,1.49-4.16c0.99-1.21,2.19-2.19,3.61-2.92s2.82-1.41,4.23-2.02s2.6-1.28,3.59-1.99
				c0.99-0.71,1.49-1.49,1.49-2.34c0-1.67-0.37-2.73-1.1-3.17c-0.74-0.45-2.17-0.67-4.31-0.67h-5.11c-0.58,0-0.97,0.11-1.17,0.33
				c-0.2,0.22-0.3,0.67-0.3,1.34c0,1-0.41,1.5-1.24,1.5c-0.78,0-1.17-0.5-1.17-1.5c0-1.47,0.29-2.52,0.87-3.14
				c0.58-0.62,1.5-0.94,2.77-0.94h5.35c2.7,0,4.67,0.42,5.93,1.27C558.26,798.14,558.88,799.78,558.88,802.2z"/>
			<path d="M586.62,808.52c0.98,0,1.47,0.42,1.47,1.27c0,0.36-0.14,0.64-0.42,0.85s-0.63,0.32-1.05,0.32h-8.19
				c-0.91,0-1.37-0.41-1.37-1.24c0-0.29,0.11-0.56,0.32-0.82c0.21-0.26,0.56-0.38,1.05-0.38H586.62z"/>
		</g>
		<rect x="279.36" y="711.48" width="473.28" height="1.43"/>
		<rect x="279.36" y="844.05" width="473.28" height="1.43"/>
	</g>
</g>
<g id="Layer_3">
</g>
<g id="Layer_2">
	<g>
		<path class="st1" d="M176.87,284.36c0,0-4.36-32.57-24.87-37.36c-16.11-3.76-39.29,7.84-46.08,10.62
			c-1.62,0.66-2.37,2.53-1.68,4.14l12.93,30.08"/>
		<path class="st2" d="M173.36,286.81c0,0-7.62-25.93-24.87-29.96c-17.25-4.02-37.22,8.56-37.22,8.56l11.9,27.69"/>
		<path class="st1" d="M851.98,284.36c0,0,6.5-31.57,27.02-36.36c16.11-3.76,37.14,6.84,43.93,9.62c1.62,0.66,2.37,2.53,1.68,4.14
			l-12.93,30.08"/>
		<path class="st2" d="M855.49,286.81c0,0,7.62-25.93,24.87-29.96c17.25-4.02,37.22,8.56,37.22,8.56l-11.9,27.69"/>
		<path d="M85.59,484.46L83.22,628.7c-0.21,12.66,10,23.04,22.66,23.04h120.99c11.55,0,20.91-9.36,20.91-20.91v-33.64"/>
		<path d="M947.05,485.73l2.36,144.24c0.21,12.66-10,23.04-22.66,23.04H805.76c-11.55,0-20.91-9.36-20.91-20.91l0.89-31.11"/>
		<path class="st3" d="M92.36,558.48c0,0-17.76-116.73-7.61-187.78s51.38-100.87,75.49-108.48c24.11-7.61,77.39-2.54,77.39-2.54
			s26.64-32.99,40.6-64.71c13.96-31.72,57.09-58.36,126.88-62.17C474.9,129,509.15,129,509.15,129h11.46c0,0,34.26,0,104.04,3.81
			c69.78,3.81,112.92,30.45,126.88,62.17s40.6,64.71,40.6,64.71s53.29-5.08,77.39,2.54c24.11,7.61,65.34,37.43,75.49,108.48
			c10.15,71.05-7.61,187.78-7.61,187.78s-23.51-5.71-24.78-18.4c-1.27-12.69-27.91-110.38-62.17-116.73
			c-34.26-6.34-150.98-5.08-159.86-8.88c-8.88-3.81-43.14-36.79-62.17-40.6s-215.69-3.81-227.11,1.27
			c-11.42,5.08-53.29,43.14-72.32,43.14c-19.03,0-138.3-2.54-159.86,13.96s-43.14,100.23-49.48,110.38S92.36,558.48,92.36,558.48z"
			/>
		<path class="st4" d="M93.6,334.96c0,0,10.4-15.96,217.4-25.96s423,1,423,1s166,5,188,20s20.62,24.87,20.62,24.87
			s5.34,37.47,5.36,62.3c0.02,24.83-6.13,110.55-6.13,110.55L938,559c0,0-12.7-4.36-17.85-8.68s-5.47-0.17-8.81-17.74
			C908,515,896.4,485.09,896.4,485.09s-14.74-38.83-27.57-49.96S855,421,824,420s-101.72-3.09-101.72-3.09s-24.38,0.17-31.83-1.87
			c-7.45-2.04-26.81-20.51-26.81-20.51s-22.21-18.47-32.43-20s-94.38-3.4-94.38-3.4S421,372,411,373s-22,10-22,10l-42.04,28.81
			c0,0-11.02,7.09-15.49,6.64s-101.53,1.53-101.53,1.53S183,424,173,430s-22.81,31.85-22.81,31.85L135,498l-11,34
			c0,0-4.17,12.72-7.09,14.36S95,558,95,558l-3,1l-5-54l-5-62c0,0-0.62-22.23,0.19-39.62C83,386,85,367,88,352
			S93.6,334.96,93.6,334.96z"/>
		<path class="st5" d="M93,564c0,0,11,36,13,42s11,19,18,19s28-10,28-10l50-12l40-5l267-5l211,3l100,13l93,18l17-28l4-11l6-17l-3-14
			c0,0-21-5-24-15s-10-36-10-36l-5.7-18.23l-16.6-36c0,0-8.55-13.43-12.13-16.6C865,432,857,425,857,425l-7.7-1.83L742,417l-52-2
			l-17.13-13.4l-24.38-17.87l-12.38-7.4L625,373h-7l-90-2h-78l-46,3l-11.72,6.79l-14.3,10.72L353,408l-20,10h-24l-39.4,0.83
			c0,0-46.6,0.17-62.6,3.17s-30.62,5.89-34.81,8.45C168,433,159.55,443.6,159.55,443.6L144,473l-14,41l-6.32,18.45
			c0,0-3.91,13.32-8.3,14.94c-4.38,1.62-13.66,7.91-13.66,7.91L92,559L93,564z"/>
		<path class="st6" d="M117.1,338.35c0,0,74.86-8.88,139.56-11.42s119.26,0,119.26,0s1.27,8.88-2.54,13.96
			c-3.81,5.08-40.6,34.26-62.17,36.79c-21.57,2.54-186.51-6.34-190.31-12.69C117.1,358.65,117.1,338.35,117.1,338.35z"/>
		<path class="st6" d="M917.06,338.98c0,0-74.86-8.88-139.56-11.42s-119.26,0-119.26,0s-1.27,8.88,2.54,13.96
			c3.81,5.08,40.6,34.26,62.17,36.79c21.57,2.54,186.51-6.34,190.31-12.69C917.06,359.28,917.06,338.98,917.06,338.98z"/>
		<path class="st7" d="M122.46,342.71c0,0,51.96-6.16,96.87-7.93s82.78,0,82.78,0s0.88,6.16-1.76,9.69
			c-2.64,3.52-28.18,23.78-43.15,25.54s-129.45-4.4-132.09-8.81C122.46,356.8,122.46,342.71,122.46,342.71z"/>
		<path class="st7" d="M902.7,342.15c0,0-51.96-6.16-96.87-7.93s-82.78,0-82.78,0s-0.88,6.16,1.76,9.69
			c2.64,3.52,28.18,23.78,43.15,25.54s129.45-4.4,132.09-8.81C902.7,356.24,902.7,342.15,902.7,342.15z"/>
		<path class="st1" d="M333,418c0,0-67,51-83,71s-21,34-21,34s-39,0-52,1s-22,1-26,8s-8,14-8,14l-19.28-12.74
			c0,0,20.28-63.26,29.28-78.26s11.64-23.96,31.32-28.98S236,419,261,418S328,419,333,418z"/>
		<path class="st1" d="M699.72,416c0,0,65.28,53,81.28,73s23,33,23,33s38.72-1,51.72,0s23.28,1,27.28,8s8,13,8,13l20-12
			c0,0-21-63-30-78s-10.32-23.98-30-29s-54.28-7-79.28-8S704.72,417,699.72,416z"/>
		<path class="st6" d="M321.94,418.7L279,461l235-1l239,1l-52-45l-8.09-0.87L674.02,403L656,387l-12.49-6.72L637,376l-11-3l-42-2
			H476h-23l-25,1l-13.26,1.38l-7.91,0.64L399,376l-24,17c0,0-17.38,13.85-17.19,12.43C358,404,340,417,340,416s-6,2-6,2l-7.04,0.36
			L321.94,418.7z"/>
		<path class="st8" d="M323.91,550.23c0,0-6.34-20.3-30.45-22.84s-123.07-7.61-137.03,0c-13.96,7.61-27.91,55.83-13.96,62.17
			c13.96,6.34,161.13,1.27,161.13,1.27l27.91-26.64h374.29l29.18,26.64c0,0,150.98,3.81,158.6-5.08c7.61-8.88-1.27-58.36-20.3-62.17
			c-19.03-3.81-131.95,0-140.83,5.08s-22.84,25.38-22.84,25.38l-8.88-6.34H341.68L323.91,550.23z"/>
		<path class="st4" d="M366.62,307.38c0,0-79.62-31.38-117.62-38.38s-103-5-122,24S366.62,307.38,366.62,307.38z"/>
		<path class="st4" d="M645,307.38c0,0,79.62-31.38,117.62-38.38s103-5,122,24S645,307.38,645,307.38z"/>
		<path class="st4" d="M378.87,306.7c0,0-23.87-29.7-34.87-39.7s-30-27-30-27l-22,22c0,0,83,41,84,44S378.87,306.7,378.87,306.7z"/>
		<path class="st4" d="M650,303.7c0,0,23.87-29.7,34.87-39.7s30-27,30-27l22,22c0,0-83,41-84,44S650,303.7,650,303.7z"/>
		<path class="st9" d="M255.81,234.87c0,0,17.19-21.87,22.19-27.87s15-14,15-14l4-2c0,0,2,11,5,21s10,25,13,28s15,14,23,15
			s20,3,20,3h19c0,0,4,3,13,5s56,2,56,2h30h54h65l31-1l11-1l13-4c0,0,12,1,24-1s24-7,24-7l5-3l5-4l8-11l9-24l2-9l2-9c0,0,10,8,14,11
			s18,18,18,18l5,4l-2-7l-6-8l-5.6-12.77c0,0-8.4-14.23-11.4-18.23s-4-5-12-12s-32.74-19.6-45.87-23.3C670,139,639,133,616,132
			s-88-3-88-3l-81,1c0,0-52,4-61,5s-28.28,3.57-39.64,7.79c-11.36,4.21-35.91,16.49-46.64,24.85
			c-10.72,8.36-15.98,19.26-20.85,26.81S255.81,234.87,255.81,234.87z"/>
		<path class="st1" d="M296,172c0-1,2,18,2,18s-11,8-16,12s-12,16-12,16l-14,17l15-24l3.32-8.68L280,191l4.98-7.57L289,177L296,172z
			"/>
		<path class="st1" d="M729,191l2.79-21.94c0,0,13.21,11.94,18.21,21.94s11.85,23.36,11.85,23.36L770,228l-2-1l-13-14l-8-8l-14-12
			L729,191z"/>
		<path class="st1" d="M300,198c0,0,7-6,14-9s15-5,15-5s4,21,15,40s33,34,33,34h-17c0,0-17-2-24-4s-17.96-8.77-21.98-15.38
			S302,210,302,210l0,0l-3-11"/>
		<path class="st1" d="M697,183c0,0,14,5,20,8s11,8,11,8s-4,17-13,35s-28,22-28,22l-23.57,3.06L648,259c0,0,13-6,22-16s18-27,20-31
			s6-20,6-20L697,183z"/>
		<path class="st1" d="M367.05,238.11c0,0,59.63-8.88,148.45-8.88s145.91,8.88,145.91,8.88l-8.88,10.15c0,0-85.01-3.81-137.03-3.81
			s-139.56,5.08-139.56,5.08L367.05,238.11z"/>
		<path class="st10" d="M374.66,226.69l-16.49-35.53c0,0,50.75-11.42,159.86-11.42s153.52,12.69,153.52,12.69l-15.23,35.53
			C656.33,227.96,436.83,220.35,374.66,226.69z"/>
		<path class="st11" d="M121,365c0,0,48.32,7.87,79.66,8.94C232,375,298,379,298,379l58,10c0,0-4,17-39,17s-81,4-81,4s-78,4-87,14
			s-13,21-21,48s-10,66-15,70s-20,10-20,10s-12.64-75.87-11.32-131.94C83,364,121,365,121,365z"/>
		<path class="st11" d="M908.58,365c0,0-48.32,7.87-79.66,8.94C797.58,375,740,380,740,380l-62,10c0,0,9,17,44,17s71.58,3,71.58,3
			S877,414,886,424s14,21,22,48s10,68,15,72s15,7,15,7s11.22-74.87,9.9-130.94S908.58,365,908.58,365z"/>
		<polygon class="st1" points="273,460 766,462 792,487 239,487 		"/>
		<path class="st11" d="M114.87,327.81c0,0,159.13-22.81,409.13-20.81s375,14,375,14l15.02,5.28c0,0-297.02-6.28-391.02-6.28
			S114.87,327.81,114.87,327.81z"/>
		<path class="st11" d="M238,260c-0.21-0.62,24.45-33.04,24.45-33.04L291,195l6-4l5,22l-53,49L238,260z"/>
		<path class="st11" d="M790,258c0.21-0.62-24.45-33.04-24.45-33.04L738,197l-9-7l-4,23l54,47L790,258z"/>
		<path class="st12" d="M314,239c0,0,38,38,29,38s-51-15-51-15L314,239z"/>
		<path class="st12" d="M715,236l21.32,22.7c0,0-46.32,22.3-50.32,18.3S715,236,715,236z"/>
		<path class="st13" d="M114.36,538.7L94,379c0,0-11.11,7.21-11.55,35.11S91,557,91,557l14.17-4
			C105.17,553,115.72,543.4,114.36,538.7"/>
		<path class="st13" d="M917,549l26.64-154.81c0,0,5.13,9.21,3.74,56.51C946,498,938,558,938,558l-12-3L917,549z"/>
		<path class="st14" d="M92.36,558.48c0,0-17.76-116.73-7.61-187.78s51.38-100.87,75.49-108.48c24.11-7.61,77.39-2.54,77.39-2.54
			s26.64-32.99,40.6-64.71c13.96-31.72,57.09-58.36,126.88-62.17C474.9,129,509.15,129,509.15,129h11.46c0,0,34.26,0,104.04,3.81
			c69.78,3.81,112.92,30.45,126.88,62.17s40.6,64.71,40.6,64.71s53.29-5.08,77.39,2.54c24.11,7.61,65.34,37.43,75.49,108.48
			c10.15,71.05-7.61,187.78-7.61,187.78s-23.51-5.71-24.78-18.4c-1.27-12.69-27.91-110.38-62.17-116.73
			c-34.26-6.34-150.98-5.08-159.86-8.88c-8.88-3.81-43.14-36.79-62.17-40.6s-215.69-3.81-227.11,1.27
			c-11.42,5.08-53.29,43.14-72.32,43.14c-19.03,0-138.3-2.54-159.86,13.96s-43.14,100.23-49.48,110.38S92.36,558.48,92.36,558.48z"
			/>
		<path class="st15" d="M258.57,234.94c0,0,15.23-22.84,22.84-31.72c7.61-8.88,16.49-12.69,16.49-12.69s5.08,43.14,25.38,57.09
			c20.3,13.96,54.56,10.15,54.56,10.15s0,5.08,31.72,6.34c31.72,1.27,206.81,1.27,219.5,0c12.69-1.27,19.03-5.08,19.03-5.08
			s44.41,2.54,59.63-13.96c15.23-16.49,21.57-54.56,21.57-54.56s24.11,17.76,39.33,38.06"/>
		<g>
			<path class="st0" d="M115.2,328.83c0.9-0.53,1.86-0.95,2.85-1.28c0.99-0.33,1.96-0.74,2.97-0.98c2.02-0.54,4.01-1.17,6.07-1.57
				c2.04-0.44,4.08-0.91,6.13-1.33l6.17-1.09c4.11-0.79,8.25-1.3,12.39-1.91l6.21-0.88l6.22-0.73c4.15-0.47,8.3-1,12.45-1.43
				l12.48-1.18c8.31-0.85,16.65-1.42,24.98-2.07c33.34-2.38,66.73-3.98,100.13-5.08l25.05-0.84l25.06-0.56l25.06-0.54l25.06-0.34
				l25.06-0.31l12.53-0.15l12.53-0.06l50.13-0.23l50.13,0.19c16.71,0.02,33.42,0.24,50.13,0.43l25.06,0.28l25.06,0.46l25.06,0.49
				c8.35,0.19,16.7,0.49,25.05,0.73l25.05,0.78l25.05,1.02c4.17,0.18,8.35,0.32,12.52,0.53l12.52,0.66
				c8.34,0.47,16.69,0.8,25.03,1.43c16.67,1.11,33.34,2.35,49.96,4.14c8.31,0.83,16.61,1.89,24.87,3.12
				c4.12,0.68,8.26,1.29,12.34,2.2c1.02,0.22,2.05,0.4,3.07,0.65l3.03,0.79c0.5,0.14,1.01,0.26,1.51,0.4l1.48,0.5
				c0.99,0.32,1.98,0.69,2.87,1.24c-0.9-0.54-1.88-0.9-2.88-1.21l-1.49-0.49c-0.5-0.14-1.01-0.26-1.52-0.39l-3.04-0.76
				c-1.02-0.23-2.05-0.41-3.07-0.61c-4.09-0.87-8.22-1.44-12.35-2.08c-8.27-1.14-16.57-2.13-24.88-2.87
				c-16.62-1.62-33.3-2.7-49.97-3.65c-8.33-0.56-16.68-0.86-25.02-1.28l-12.51-0.59c-4.17-0.19-8.35-0.31-12.52-0.46l-25.04-0.88
				l-25.05-0.64c-66.8-1.64-133.62-2.11-200.45-2.11c-66.82,0.01-133.65,0.65-200.44,2.57c-33.4,0.91-66.78,2.34-100.11,4.52
				c-8.33,0.57-16.67,1.05-24.99,1.82l-12.48,1.06c-4.16,0.39-8.3,0.87-12.46,1.31l-6.23,0.67l-6.21,0.82
				c-4.14,0.57-8.29,1.04-12.4,1.79l-6.18,1.03c-2.05,0.4-4.09,0.85-6.13,1.27c-2.06,0.38-4.05,0.99-6.08,1.51
				c-1.02,0.23-1.99,0.63-2.98,0.95C117.07,327.9,116.1,328.31,115.2,328.83z"/>
		</g>
		<path class="st16" d="M91.73,560.38c0,0,3.81,24.11,15.23,46.94s21.57,17.76,21.57,17.76s81.2-31.72,171.28-31.72
			s378.09-1.27,428.84,2.54c50.75,3.81,183.97,30.45,183.97,30.45s27.91-38.06,26.64-65.98"/>
		<path class="st15" d="M117.1,338.35c0,0,74.86-8.88,139.56-11.42s119.26,0,119.26,0s1.27,8.88-2.54,13.96
			c-3.81,5.08-40.6,34.26-62.17,36.79c-21.57,2.54-186.51-6.34-190.31-12.69C117.1,358.65,117.1,338.35,117.1,338.35z"/>
		<path class="st17" d="M125.35,347.86c0,0,48.21-6.34,123.07-10.15c74.86-3.81,121.8-2.54,121.8-2.54"/>
		<g>
			<path class="st18" d="M129.79,348.5c-0.71,0.53-1.33,1.35-1.22,2.22c0.12,0.86,0.85,1.49,1.56,1.96
				c1.49,0.95,3.21,1.53,4.92,2.02c3.46,0.95,7.03,1.5,10.6,1.97c3.57,0.47,7.16,0.84,10.76,1.12c3.6,0.27,7.2,0.59,10.82,0.81
				c7.22,0.48,14.44,0.96,21.67,1.39l21.68,1.33l21.68,1.37l21.68,1.46l21.67,1.58c7.22,0.62,14.45,1.13,21.66,1.82
				c-14.5-0.12-28.99-0.47-43.46-1.06c-7.24-0.25-14.48-0.63-21.71-0.96l-21.7-1.21c-14.46-0.93-28.92-1.94-43.36-3.38
				c-7.21-0.72-14.44-1.5-21.61-2.81c-3.57-0.69-7.14-1.47-10.61-2.66c-1.72-0.61-3.45-1.3-4.95-2.41c-0.7-0.57-1.46-1.31-1.52-2.31
				C128.32,349.73,129.05,348.96,129.79,348.5z"/>
		</g>
		<path class="st19" d="M170.39,366.26c0,0,128.15,7.61,139.56,5.08s30.45-15.23,30.45-15.23"/>
		<g>
			<path class="st18" d="M169.12,353.57c7.66-1.02,15.36-1.81,23.04-2.63c7.69-0.76,15.4-1.41,23.11-2.04
				c7.71-0.65,15.43-1.08,23.15-1.5l11.59-0.55c3.87-0.13,7.73-0.31,11.6-0.4c7.73-0.17,15.48-0.18,23.21-0.13
				c7.73,0.07,15.46,0.08,23.19,0.3c7.73,0.18,15.46,0.39,23.18,0.66c7.72,0.34,15.45,0.65,23.16,1.21
				c-7.73-0.11-15.46-0.22-23.18-0.23c-7.73-0.07-15.45-0.11-23.18-0.11c-15.45,0.02-30.91-0.15-46.33,0.29
				c-15.44,0.28-30.86,1.13-46.29,1.99c-7.71,0.44-15.42,0.93-23.13,1.48C184.54,352.4,176.83,353,169.12,353.57z"/>
		</g>
		<path class="st15" d="M917.06,338.98c0,0-74.86-8.88-139.56-11.42s-119.26,0-119.26,0s-1.27,8.88,2.54,13.96
			c3.81,5.08,40.6,34.26,62.17,36.79c21.57,2.54,186.51-6.34,190.31-12.69C917.06,359.28,917.06,338.98,917.06,338.98z"/>
		<path class="st17" d="M908.81,348.5c0,0-48.21-6.34-123.07-10.15s-121.8-2.54-121.8-2.54"/>
		<g>
			<path class="st18" d="M904.37,349.13c0.74,0.47,1.47,1.23,1.45,2.23c-0.06,1-0.81,1.74-1.52,2.31c-1.5,1.11-3.23,1.8-4.95,2.41
				c-3.47,1.19-7.04,1.97-10.61,2.66c-7.17,1.3-14.4,2.09-21.61,2.81c-14.44,1.45-28.89,2.45-43.36,3.38l-21.7,1.21
				c-7.24,0.33-14.47,0.71-21.71,0.96c-14.48,0.58-28.97,0.94-43.46,1.06c7.22-0.69,14.44-1.2,21.66-1.82l21.67-1.58l21.68-1.46
				l21.68-1.37l21.68-1.33c7.23-0.42,14.45-0.91,21.67-1.39c3.61-0.22,7.21-0.54,10.82-0.81c3.6-0.28,7.19-0.65,10.76-1.12
				c3.57-0.47,7.14-1.02,10.6-1.97c1.72-0.49,3.44-1.07,4.92-2.02c0.71-0.48,1.44-1.1,1.56-1.96
				C905.7,350.48,905.08,349.66,904.37,349.13z"/>
		</g>
		<path class="st19" d="M863.77,366.89c0,0-128.15,7.61-139.56,5.08c-11.42-2.54-30.45-15.23-30.45-15.23"/>
		<g>
			<path class="st18" d="M865.04,354.21c-7.71-0.57-15.41-1.17-23.13-1.65c-7.71-0.55-15.42-1.04-23.13-1.48
				c-15.42-0.86-30.85-1.71-46.29-1.99c-15.42-0.44-30.88-0.27-46.33-0.29c-7.73-0.01-15.45,0.03-23.18,0.11
				c-7.73,0.01-15.45,0.12-23.18,0.23c7.71-0.56,15.44-0.86,23.16-1.21c7.73-0.27,15.45-0.48,23.18-0.66
				c7.73-0.21,15.46-0.23,23.19-0.3c7.73-0.06,15.48-0.04,23.21,0.13c3.87,0.09,7.73,0.27,11.6,0.4l11.59,0.55
				c7.72,0.43,15.45,0.86,23.15,1.5c7.71,0.62,15.41,1.28,23.11,2.04C849.68,352.4,857.38,353.19,865.04,354.21z"/>
		</g>
		<g>
			<path class="st20" d="M379.1,325.02c11.42-0.23,22.84-0.33,34.26-0.51l34.26-0.32l68.51-0.4l68.51-0.09l68.52,0.05
				c-11.41,0.43-22.83,0.67-34.25,0.94l-34.26,0.55c-22.84,0.3-45.68,0.39-68.52,0.55c-22.84-0.01-45.68,0.06-68.52-0.07
				l-34.26-0.23C401.94,325.34,390.52,325.25,379.1,325.02z"/>
		</g>
		<g>
			<path class="st21" d="M237.64,259.68c12.15,1.65,24.2,3.99,36.17,6.67c11.97,2.69,23.82,5.88,35.55,9.51
				c11.69,3.72,23.26,7.89,34.48,12.88c5.59,2.53,11.13,5.18,16.51,8.14c5.36,2.99,10.6,6.19,15.6,9.74
				c-10.23-6.76-21.17-12.34-32.41-17.18c-11.25-4.83-22.77-9-34.47-12.63c-11.67-3.7-23.51-6.87-35.42-9.72
				c-5.96-1.43-11.94-2.76-17.94-3.99C249.7,261.85,243.68,260.71,237.64,259.68z"/>
		</g>
		<g>
			<path class="st21" d="M789.83,257.7c-6.18,0.84-12.3,2.02-18.38,3.34l-4.56,0.99l-4.54,1.09c-3.04,0.7-6.04,1.52-9.05,2.31
				c-12.03,3.21-23.93,6.9-35.7,10.99c-5.85,2.13-11.75,4.14-17.53,6.46c-2.9,1.14-5.82,2.22-8.69,3.41l-8.62,3.59l-4.31,1.79
				l-4.27,1.9l-8.53,3.81c-5.67,2.57-11.26,5.34-16.92,7.96l8.34-4.23c2.79-1.38,5.54-2.86,8.37-4.17l8.48-3.94l4.24-1.97l4.29-1.86
				l8.6-3.69c2.88-1.21,5.8-2.31,8.69-3.46c5.78-2.36,11.67-4.4,17.53-6.56c11.81-4.02,23.73-7.73,35.83-10.79
				C765.2,261.68,777.43,259.03,789.83,257.7z"/>
		</g>
		<g>
			<path class="st22" d="M275.7,310.43c-3.54-4.63-6.88-9.4-10.09-14.27c-3.2-4.88-6.23-9.87-8.9-15.07
				c-1.28-2.63-2.53-5.3-3.2-8.23c-0.15-0.74-0.27-1.49-0.21-2.29c0.02-0.4,0.12-0.81,0.3-1.21c0.2-0.4,0.54-0.75,0.94-0.96
				c0.41-0.21,0.86-0.25,1.19-0.29l1.09-0.13l2.19-0.18c5.84-0.37,11.68-0.23,17.49,0.28c-2.91-0.05-5.82-0.07-8.73,0.01
				c-2.91,0.06-5.81,0.19-8.69,0.47l-2.16,0.25c-0.68,0.12-1.53,0.13-1.99,0.36c-0.24,0.13-0.42,0.32-0.55,0.58
				c-0.11,0.27-0.19,0.57-0.2,0.9c-0.04,0.65,0.06,1.35,0.21,2.04c0.66,2.75,1.92,5.39,3.21,7.98c2.57,5.19,5.61,10.16,8.65,15.11
				c1.53,2.48,3.09,4.93,4.68,7.37C272.49,305.57,274.1,308,275.7,310.43z"/>
		</g>
		<g>
			<path class="st22" d="M754.2,265.04c6.76-0.74,13.58-1.21,20.42-0.73c1.71,0.14,3.43,0.34,5.11,0.89
				c0.83,0.3,1.71,0.62,2.37,1.43c0.33,0.4,0.5,1,0.4,1.53c-0.08,0.55-0.33,0.9-0.51,1.3c-1.6,3.1-3.54,5.87-5.43,8.72
				c-3.9,5.59-7.9,11.09-11.99,16.53c-4.1,5.43-8.26,10.82-12.53,16.11l11.92-16.57c3.96-5.53,7.97-11.03,11.79-16.64
				c1.89-2.8,3.88-5.61,5.43-8.54c0.44-0.77,0.66-1.39,0.22-1.91c-0.41-0.53-1.19-0.89-1.94-1.15c-1.56-0.51-3.24-0.75-4.91-0.94
				c-3.36-0.35-6.76-0.4-10.15-0.37C760.99,264.72,757.6,264.86,754.2,265.04z"/>
		</g>
		<line class="st23" x1="285.57" y1="268.93" x2="313.76" y2="239.38"/>
		<line class="st23" x1="745.14" y1="267.3" x2="714.89" y2="236.53"/>
		<path class="st24" d="M299.82,198.09c0,0,25.36-33.57,216.95-33.57s211.52,34.86,211.52,34.86"/>
		<path class="st25" d="M323.91,550.23c0,0-6.34-20.3-30.45-22.84s-123.07-7.61-137.03,0c-13.96,7.61-27.91,55.83-13.96,62.17
			c13.96,6.34,161.13,1.27,161.13,1.27l27.91-26.64h374.29l29.18,26.64c0,0,150.98,3.81,158.6-5.08c7.61-8.88-1.27-58.36-20.3-62.17
			c-19.03-3.81-131.95,0-140.83,5.08s-22.84,25.38-22.84,25.38l-8.88-6.34H341.68L323.91,550.23z"/>
		<circle class="st26" cx="393.06" cy="517.88" r="27.91"/>
		<circle class="st27" cx="393.69" cy="517.24" r="18.4"/>
		<circle class="st26" cx="641.74" cy="517.88" r="27.91"/>
		<circle class="st27" cx="642.37" cy="517.24" r="18.4"/>
		<g>
			<polygon class="st28" points="153.9,460.15 146.12,473.27 146.06,473.15 238.87,474.51 331.69,476.06 517.3,479.44 702.9,475.2 
				795.7,473.25 888.51,471.48 888.44,471.62 877.09,457.61 888.58,471.51 888.7,471.65 888.51,471.66 795.72,474.32 702.92,476.8 
				517.3,481.43 331.67,477.63 238.86,475.56 146.05,473.3 145.92,473.3 145.99,473.19 			"/>
		</g>
		<g>
			<polyline class="st29" points="320.11,425.89 285.85,460.15 743.87,460.15 713.42,424.62 			"/>
			<path class="st30" d="M320.11,425.89l-16.92,17.34l-16.96,17.29l-0.37-0.9c19.08-0.21,38.17-0.32,57.25-0.43l57.25-0.32
				l114.51-0.22l114.51,0.23l57.25,0.32c19.08,0.11,38.17,0.22,57.25,0.43l-0.39,0.85l-15.05-17.91l-15.01-17.95l15.44,17.58
				l15.4,17.61l0.73,0.84l-1.13,0.01c-19.08,0.21-38.17,0.33-57.25,0.43l-57.25,0.32l-114.51,0.23l-114.51-0.22l-57.25-0.32
				c-19.08-0.11-38.17-0.21-57.25-0.43l-1.28-0.01l0.91-0.89l17.29-16.96L320.11,425.89z"/>
		</g>
		<g>
			<path class="st28" d="M151.99,460.49c15.61,0.09,31.2,0.74,46.79,1.1c15.59,0.39,31.18,0.86,46.76,0.8
				c7.78,0.02,15.59-0.01,23.31-0.59c0.96-0.08,1.93-0.15,2.88-0.28l1.43-0.17l1.4-0.25c0.48-0.07,0.92-0.18,1.35-0.31
				c0.44-0.11,0.88-0.23,1.3-0.43c0.86-0.33,1.69-0.78,2.52-1.24c3.29-1.91,6.34-4.32,9.31-6.79c5.92-5.01,11.45-10.51,16.85-16.12
				c5.44-5.58,10.68-11.36,15.85-17.2c-9.76,12.17-20.03,23.98-31.7,34.48c-2.95,2.58-5.99,5.1-9.46,7.13
				c-0.87,0.5-1.76,0.98-2.72,1.36c-0.46,0.22-0.96,0.37-1.47,0.5c-0.5,0.15-1,0.28-1.49,0.36l-1.48,0.27l-1.47,0.19
				c-0.98,0.14-1.96,0.22-2.94,0.31c-7.84,0.64-15.65,0.73-23.46,0.77c-7.81-0.04-15.62-0.2-23.42-0.42
				c-7.8-0.23-15.6-0.46-23.4-0.86l-23.38-1.21C167.57,461.44,159.78,460.88,151.99,460.49z"/>
		</g>
		<g>
			<path class="st28" d="M881.26,460.49c-7.79,0.4-15.57,0.95-23.36,1.42l-23.38,1.21c-7.79,0.4-15.59,0.62-23.4,0.86
				c-7.8,0.22-15.61,0.38-23.42,0.42c-7.81-0.04-15.63-0.13-23.46-0.77c-0.98-0.09-1.96-0.17-2.94-0.31l-1.47-0.19l-1.48-0.27
				c-0.49-0.07-0.99-0.2-1.49-0.36c-0.51-0.14-1.01-0.28-1.47-0.5c-0.96-0.38-1.84-0.87-2.72-1.36c-3.46-2.02-6.5-4.54-9.46-7.13
				c-11.67-10.5-21.94-22.31-31.7-34.48c5.17,5.84,10.42,11.61,15.85,17.2c5.4,5.61,10.93,11.11,16.85,16.12
				c2.98,2.47,6.03,4.89,9.31,6.79c0.82,0.46,1.66,0.91,2.52,1.24c0.42,0.2,0.86,0.32,1.3,0.43c0.43,0.13,0.87,0.24,1.35,0.31
				l1.4,0.25l1.43,0.17c0.95,0.13,1.91,0.2,2.88,0.28c7.72,0.58,15.52,0.6,23.31,0.59c15.58,0.05,31.17-0.42,46.76-0.8
				C850.07,461.23,865.66,460.57,881.26,460.49z"/>
		</g>
		<polyline class="st24" points="217.11,423 226.22,429.7 315.03,429.7 		"/>
		<line class="st31" x1="227.49" y1="424.62" x2="308.69" y2="424.62"/>
		<polyline class="st32" points="720.19,429.06 809.85,428.57 817.37,422 		"/>
		<line class="st33" x1="720.4" y1="422.72" x2="807.95" y2="422.72"/>
		<path class="st34" d="M620.42,447.46H425.8c-4.42,0-8-3.58-8-8v-34.75c0-4.42,3.58-8,8-8h194.62c4.42,0,8,3.58,8,8v34.75
			C628.42,443.88,624.83,447.46,620.42,447.46z"/>
		<circle class="st35" cx="367.68" cy="445.56" r="6.98"/>
		<circle class="st35" cx="665.84" cy="445.56" r="6.98"/>
		<path class="st24" d="M374.66,226.69l-16.49-35.53c0,0,50.75-11.42,159.86-11.42s153.52,12.69,153.52,12.69l-15.23,35.53
			C656.33,227.96,436.83,220.35,374.66,226.69z"/>
		<path class="st24" d="M329.19,184.49c0,0,6.14,44.74,46.74,72.66"/>
		<path class="st24" d="M697.19,182.87c0,0-2.79,48.9-48.47,76.81"/>
		<path class="st24" d="M367.05,238.11c0,0,59.63-8.88,148.45-8.88s145.91,8.88,145.91,8.88l-8.88,10.15c0,0-85.01-3.81-137.03-3.81
			s-139.56,5.08-139.56,5.08L367.05,238.11z"/>
		<path class="st36" d="M379.08,258.67c0,0,19.69-2.79,32.38-4.06c12.69-1.27,86.28-1.27,90.08-3.81
			c3.81-2.54,8.88-15.23,8.88-15.23h11.42c0,0,5.08,13.96,8.88,15.23c3.81,1.27,77.39,1.27,88.81,2.54
			c11.42,1.27,30.68,5.01,30.68,5.01"/>
		<g>
			<path class="st37" d="M302.34,382.75c9.12,0.76,18.22,1.81,27.32,2.83c9.1,1.05,18.19,2.13,27.27,3.26l0.4,0.05l-0.22,0.33
				c-4.14,6.31-10.3,11.14-17.25,13.94c-3.48,1.39-7.17,2.31-10.91,2.6c-3.73,0.36-7.45,0.4-11.18,0.57
				c-14.89,0.51-29.79,0.99-44.67,1.64c-14.88,0.65-29.76,1.44-44.62,2.52c-14.85,1.11-29.7,2.4-44.44,4.46
				c-7.36,1.06-14.71,2.3-21.89,4.19c-3.59,0.92-7.13,2.09-10.4,3.75c-3.33,1.57-5.83,4.42-7.95,7.41
				c-4.18,6.11-6.95,13.09-9.4,20.09c-2.4,7.04-4.37,14.22-6.14,21.45c-3.53,14.47-6.19,29.14-8.95,43.78
				c-1.41,7.32-2.7,14.66-4.54,21.89c-0.49,1.8-0.98,3.61-1.83,5.29c-0.24,0.4-0.47,0.83-0.89,1.11l-1.21,0.7
				c-0.82,0.45-1.64,0.88-2.47,1.3c-3.34,1.65-6.79,3.08-10.32,4.29c3.51-1.24,6.95-2.7,10.27-4.38c0.83-0.43,1.65-0.87,2.46-1.32
				l1.2-0.71c0.37-0.25,0.6-0.67,0.82-1.06c0.82-1.66,1.29-3.48,1.76-5.27c1.78-7.23,2.99-14.59,4.33-21.91
				c2.61-14.67,5.29-29.34,8.76-43.85c1.75-7.25,3.69-14.46,6.08-21.53c2.44-7.04,5.19-14.07,9.43-20.31
				c1.08-1.54,2.25-3.02,3.6-4.36c1.34-1.33,2.89-2.51,4.6-3.32c3.36-1.72,6.94-2.92,10.56-3.86c7.23-1.94,14.6-3.2,21.98-4.29
				c14.77-2.13,29.63-3.48,44.5-4.5c14.87-1.04,29.76-1.78,44.65-2.38c14.89-0.61,29.79-1.03,44.68-1.5
				c3.72-0.15,7.46-0.19,11.14-0.53c3.69-0.27,7.32-1.17,10.75-2.53c6.85-2.73,12.97-7.51,17.03-13.66l0.19,0.38
				c-9.08-1.2-18.15-2.38-27.24-3.5C320.54,384.73,311.46,383.6,302.34,382.75z"/>
		</g>
		<g>
			<path class="st37" d="M732.45,382.75c-9.12,0.85-18.2,1.98-27.29,3.09c-9.08,1.13-18.16,2.31-27.24,3.5l0.19-0.38
				c4.06,6.15,10.18,10.93,17.03,13.66c3.43,1.36,7.06,2.26,10.75,2.53c3.69,0.34,7.43,0.38,11.14,0.53
				c14.89,0.47,29.79,0.89,44.68,1.5c14.89,0.6,29.78,1.34,44.65,2.38c14.87,1.02,29.73,2.37,44.5,4.5
				c7.38,1.09,14.75,2.35,21.98,4.29c3.62,0.94,7.2,2.13,10.56,3.86c1.71,0.82,3.26,1.99,4.6,3.32c1.35,1.33,2.52,2.82,3.6,4.36
				c4.24,6.24,6.99,13.27,9.43,20.31c2.39,7.08,4.34,14.28,6.08,21.53c3.47,14.51,6.15,29.18,8.76,43.85
				c1.34,7.33,2.56,14.69,4.33,21.91c0.48,1.79,0.94,3.61,1.76,5.27c0.23,0.39,0.46,0.81,0.82,1.06l1.2,0.71
				c0.81,0.46,1.63,0.9,2.46,1.32c3.32,1.68,6.76,3.14,10.27,4.38c-3.52-1.21-6.97-2.63-10.32-4.29c-0.83-0.42-1.66-0.85-2.47-1.3
				l-1.21-0.7c-0.42-0.28-0.65-0.71-0.89-1.11c-0.85-1.68-1.33-3.5-1.83-5.29c-1.85-7.23-3.14-14.58-4.54-21.89
				c-2.76-14.64-5.41-29.31-8.95-43.78c-1.77-7.23-3.73-14.42-6.14-21.45c-2.45-7-5.22-13.98-9.4-20.09
				c-2.12-2.99-4.62-5.84-7.95-7.41c-3.27-1.66-6.81-2.83-10.4-3.75c-7.18-1.9-14.53-3.13-21.89-4.19
				c-14.74-2.07-29.59-3.35-44.44-4.46c-14.86-1.08-29.73-1.87-44.62-2.52c-14.88-0.66-29.78-1.13-44.67-1.64
				c-3.72-0.16-7.45-0.21-11.18-0.57c-3.74-0.29-7.43-1.21-10.91-2.6c-6.96-2.8-13.11-7.64-17.25-13.94l-0.22-0.33l0.4-0.05
				c9.09-1.13,18.18-2.21,27.27-3.26C714.23,384.56,723.33,383.51,732.45,382.75z"/>
		</g>
		<g>
			<polyline class="st38" points="372.13,569.26 370.86,613.67 387.35,594.64 			"/>
			<path class="st30" d="M372.13,569.26c0.3,3.71,0.46,7.42,0.55,11.13c0.06,1.85,0.1,3.71,0.11,5.56c0.02,1.85,0.05,3.7,0.03,5.56
				c0.01,3.7-0.07,7.41-0.15,11.11c-0.1,3.7-0.23,7.4-0.41,11.1l-2.45-0.96c2.81-3.12,5.67-6.2,8.58-9.23
				c2.91-3.03,5.88-6.01,8.97-8.89c-2.41,3.47-4.94,6.83-7.52,10.14c-2.58,3.31-5.23,6.58-7.91,9.8l-2.49,3l0.04-3.95
				c0.04-3.7,0.11-7.4,0.23-11.1c0.13-3.7,0.26-7.4,0.48-11.1c0.09-1.85,0.21-3.7,0.34-5.55c0.12-1.85,0.26-3.7,0.42-5.54
				C371.25,576.64,371.62,572.95,372.13,569.26z"/>
		</g>
		<g>
			<polyline class="st38" points="440.64,569.26 439.37,613.67 455.86,594.64 			"/>
			<path class="st30" d="M440.64,569.26c0.3,3.71,0.46,7.42,0.55,11.13c0.06,1.85,0.1,3.71,0.11,5.56c0.02,1.85,0.05,3.7,0.03,5.56
				c0.01,3.7-0.07,7.41-0.15,11.11c-0.1,3.7-0.23,7.4-0.41,11.1l-2.45-0.96c2.81-3.12,5.67-6.2,8.58-9.23
				c2.91-3.03,5.88-6.01,8.97-8.89c-2.41,3.47-4.94,6.83-7.52,10.14c-2.58,3.31-5.23,6.58-7.91,9.8l-2.49,3l0.04-3.95
				c0.04-3.7,0.11-7.4,0.23-11.1c0.13-3.7,0.26-7.4,0.48-11.1c0.09-1.85,0.21-3.7,0.34-5.55c0.12-1.85,0.26-3.7,0.42-5.54
				C439.76,576.64,440.13,572.95,440.64,569.26z"/>
		</g>
		<g>
			<polyline class="st38" points="662.67,569.26 663.94,613.67 647.45,594.64 			"/>
			<path class="st30" d="M662.67,569.26c0.51,3.69,0.88,7.38,1.19,11.08c0.17,1.85,0.31,3.69,0.42,5.54
				c0.13,1.85,0.26,3.7,0.34,5.55c0.22,3.7,0.35,7.4,0.48,11.1c0.12,3.7,0.19,7.4,0.23,11.1l0.04,3.95l-2.49-3
				c-2.68-3.23-5.33-6.49-7.91-9.8c-2.58-3.32-5.12-6.67-7.52-10.14c3.09,2.87,6.06,5.86,8.97,8.89c2.91,3.03,5.77,6.11,8.58,9.23
				l-2.45,0.96c-0.17-3.7-0.31-7.4-0.41-11.1c-0.08-3.7-0.16-7.4-0.15-11.11c-0.02-1.85,0-3.7,0.03-5.56
				c0.01-1.85,0.05-3.7,0.11-5.56C662.22,576.68,662.38,572.97,662.67,569.26z"/>
		</g>
		<g>
			<polyline class="st38" points="594.16,569.26 595.43,613.67 578.93,594.64 			"/>
			<path class="st30" d="M594.16,569.26c0.51,3.69,0.88,7.38,1.19,11.08c0.17,1.85,0.31,3.69,0.42,5.54
				c0.13,1.85,0.26,3.7,0.34,5.55c0.22,3.7,0.35,7.4,0.48,11.1c0.12,3.7,0.19,7.4,0.23,11.1l0.04,3.95l-2.49-3
				c-2.68-3.23-5.33-6.49-7.91-9.8c-2.58-3.32-5.12-6.67-7.52-10.14c3.09,2.87,6.06,5.86,8.97,8.89c2.91,3.03,5.77,6.11,8.58,9.23
				l-2.45,0.96c-0.17-3.7-0.31-7.4-0.41-11.1c-0.08-3.7-0.16-7.4-0.15-11.11c-0.02-1.85,0-3.7,0.03-5.56
				c0.01-1.85,0.05-3.7,0.11-5.56C593.7,576.68,593.86,572.97,594.16,569.26z"/>
		</g>
		<g>
			<path d="M86.04,484.46c2.68,30.69,3.84,61.35,4.46,92.01l0.26,11.5l0.1,11.49l0.16,22.99c0.02,1.92,0.03,3.83,0,5.75
				c0,0.23-0.01,0.51,0,0.69l0.03,0.47l0.04,0.95c0.11,0.62,0.15,1.25,0.31,1.85c0.58,2.42,1.68,4.74,3.39,6.58
				c0.79,0.97,1.81,1.72,2.8,2.47c1.07,0.63,2.14,1.28,3.32,1.63c0.57,0.25,1.18,0.34,1.77,0.51c0.6,0.12,1.22,0.19,1.83,0.27
				l0.93,0.03l0.48,0.03l0.72-0.01l2.87-0.01l22.98,0.18l11.49,0.09c3.83,0.03,7.66,0.04,11.49,0.15l22.98,0.54
				c3.83,0.1,7.66,0.15,11.49,0.29l11.49,0.44l11.49,0.44c3.83,0.15,7.66,0.28,11.49,0.51l1.44,0.08c0.45,0.02,1.03,0.07,1.34,0.06
				c0.72,0.01,1.45,0.05,2.16-0.04c0.73-0.02,1.43-0.2,2.16-0.31c0.36-0.08,0.7-0.2,1.05-0.29c0.36-0.09,0.71-0.2,1.04-0.35
				c1.4-0.48,2.68-1.27,3.91-2.13c1.23-0.88,2.26-2.01,3.27-3.17c0.93-1.22,1.76-2.55,2.37-4c0.56-1.46,1.06-2.99,1.2-4.6l0.08-0.6
				c0.03-0.2,0.04-0.47,0.05-0.7l0.1-1.44l0.2-2.87c0.12-1.92,0.29-3.83,0.45-5.75l0.96-11.49l1.15-11.49l0-0.04
				c0.02-0.25,0.24-0.43,0.49-0.4c0.23,0.02,0.4,0.22,0.4,0.45l0.06,22.98c-0.01,3.84,0.06,7.64-0.01,11.51
				c-0.02,1.97-0.45,3.91-1,5.79c-0.61,1.87-1.49,3.64-2.55,5.3c-1.13,1.61-2.4,3.13-3.91,4.4c-1.52,1.24-3.14,2.39-4.95,3.18
				c-0.44,0.23-0.89,0.41-1.36,0.57c-0.46,0.16-0.92,0.36-1.39,0.49c-0.96,0.24-1.9,0.54-2.88,0.65c-0.97,0.19-1.95,0.23-2.94,0.27
				c-0.98,0.04-1.92,0.02-2.88,0.03l-22.98,0.06l-91.92,0.22c-1.92,0-3.81,0.03-5.82-0.12c-0.98-0.12-1.97-0.26-2.94-0.47
				c-0.96-0.26-1.94-0.46-2.86-0.85c-1.89-0.63-3.63-1.64-5.3-2.71c-1.59-1.18-3.15-2.44-4.41-3.98c-2.65-2.97-4.4-6.68-5.24-10.55
				c-0.22-0.97-0.3-1.96-0.43-2.94c-0.02-0.98-0.1-2-0.06-2.95l0.11-5.74l0.87-45.95l1.73-91.9c0-0.25,0.21-0.45,0.46-0.44
				c0.23,0,0.42,0.18,0.44,0.41L86.04,484.46z"/>
		</g>
		<g>
			<path d="M947.5,485.72c3.66,30.38,5.82,60.78,7.44,91.19l0.63,11.4c0.2,3.8,0.32,7.6,0.48,11.41l0.91,22.81
				c0.07,1.9,0.17,3.8,0.2,5.7l0.03,1.43c0.01,0.52,0.01,1.24-0.01,1.85c-0.06,1.27-0.15,2.55-0.37,3.81
				c-0.79,5.07-2.92,9.92-6.08,13.96c-3.15,4.05-7.33,7.28-12.07,9.32c-2.37,1.01-4.87,1.74-7.42,2.12
				c-1.27,0.18-2.56,0.32-3.84,0.34c-0.71,0.02-1.11,0.02-1.6,0.03l-1.43,0.01c-15.22-0.12-30.43-0.19-45.65-0.39l-22.82-0.53
				l-11.41-0.27l-11.41-0.44c-7.61-0.31-15.22-0.55-22.82-0.92l-2.85-0.15l-1.43-0.08c-0.48-0.03-1.16-0.07-1.72-0.12
				c-2.36-0.24-4.69-0.79-6.89-1.66c-4.39-1.72-8.23-4.64-11-8.3c-2.76-3.67-4.41-8.09-4.81-12.53c-0.09-1.12-0.12-2.2-0.07-3.36
				c0.07-1.06,0.19-1.93,0.28-2.91c0.2-1.9,0.38-3.8,0.62-5.7l1.35-11.4l1.55-11.38l0.01-0.05c0.03-0.25,0.26-0.42,0.51-0.38
				c0.23,0.03,0.39,0.23,0.39,0.46l-0.6,22.81l-0.15,5.7c-0.02,0.95-0.06,1.91-0.06,2.84c0.01,0.92,0.1,1.85,0.22,2.76
				c0.56,3.67,2.14,7.16,4.52,10c2.37,2.84,5.54,5.01,9.04,6.2c1.75,0.6,3.58,0.94,5.42,1.05c1.83,0.07,3.78,0.01,5.67,0.02
				l22.82-0.06l91.3-0.22c1.93,0,3.76,0.05,5.57-0.22c1.81-0.26,3.58-0.76,5.27-1.46c3.37-1.42,6.38-3.69,8.66-6.57
				c2.28-2.87,3.83-6.31,4.42-9.93c0.16-0.9,0.24-1.82,0.29-2.73c0.03-0.9,0.01-1.85,0-2.81l-0.08-5.71l-0.64-45.64l-1.27-91.29
				c0-0.25,0.19-0.45,0.44-0.46c0.23,0,0.42,0.17,0.45,0.39L947.5,485.72z"/>
		</g>
		<g>
			<path class="st39" d="M100.5,567.5c4.46,7.48,8.42,14.98,12.65,22.18c2.11,3.58,4.26,7.11,6.59,10.33
				c1.18,1.59,2.34,3.17,3.61,4.47c1.23,1.32,2.55,2.48,3.69,3.05c0.14,0.07,0.28,0.17,0.41,0.22c0.12,0.04,0.24,0.08,0.36,0.13
				c0.25,0.15,0.42,0.09,0.61,0.16c0.2,0.04,0.29-0.03,0.49,0.02l1.5-0.23c2-0.26,4.05-0.63,6.11-0.98l12.46-2.15
				c8.38-1.38,16.82-2.69,25.53-3.22c-7.67,4.17-15.67,7.32-23.81,10.09c-4.08,1.37-8.21,2.58-12.43,3.64
				c-1.05,0.27-2.11,0.51-3.19,0.74c-1.07,0.23-2.14,0.47-3.25,0.66l-1.66,0.28c-0.85,0.06-1.84,0.16-2.69,0.05
				c-0.85-0.13-1.77-0.24-2.5-0.54l-1.14-0.41c-0.36-0.15-0.68-0.33-1.01-0.51c-2.62-1.45-4.46-3.26-6.08-5.08
				c-1.6-1.85-2.91-3.75-4.1-5.69c-2.37-3.89-4.24-7.9-5.84-11.97c-1.59-4.08-2.91-8.22-3.98-12.43
				C101.77,576.11,100.9,571.86,100.5,567.5z"/>
		</g>
		<g>
			<path class="st39" d="M930.5,567.5c-0.4,4.36-1.27,8.61-2.32,12.82c-1.07,4.21-2.39,8.35-3.98,12.43
				c-1.6,4.08-3.47,8.09-5.84,11.97c-1.2,1.95-2.51,3.84-4.1,5.69c-1.62,1.82-3.46,3.63-6.08,5.08c-0.34,0.18-0.65,0.36-1.01,0.51
				l-1.15,0.41c-0.73,0.3-1.64,0.41-2.5,0.54c-0.86,0.11-1.84,0.01-2.69-0.05l-1.66-0.28c-1.11-0.19-2.18-0.43-3.25-0.66
				c-1.08-0.23-2.14-0.47-3.19-0.74c-4.21-1.06-8.35-2.27-12.43-3.64c-8.14-2.77-16.14-5.92-23.81-10.09
				c8.71,0.53,17.15,1.84,25.53,3.22l12.46,2.15c2.06,0.35,4.11,0.72,6.11,0.98l1.5,0.23c0.21-0.05,0.3,0.02,0.49-0.02
				c0.19-0.08,0.35-0.02,0.61-0.16c0.12-0.05,0.24-0.09,0.36-0.13c0.13-0.05,0.27-0.16,0.41-0.22c1.14-0.58,2.45-1.73,3.69-3.05
				c1.27-1.3,2.44-2.89,3.61-4.47c2.33-3.22,4.47-6.75,6.59-10.33C922.08,582.48,926.04,574.98,930.5,567.5z"/>
		</g>
		<g>
			<path class="st0" d="M377.5,298.5l8.44-0.3l8.44-0.23l16.88-0.45c11.25-0.23,22.5-0.45,33.75-0.58
				c11.25-0.18,22.5-0.23,33.75-0.33l33.75-0.11l33.75,0.11c11.25,0.11,22.5,0.15,33.75,0.33c11.25,0.13,22.5,0.35,33.75,0.58
				l16.88,0.45l8.44,0.23l8.44,0.3l-8.44,0.3l-8.44,0.23l-16.88,0.45c-11.25,0.23-22.5,0.45-33.75,0.58
				c-11.25,0.19-22.5,0.22-33.75,0.33l-33.75,0.11l-33.75-0.11c-11.25-0.11-22.5-0.15-33.75-0.33c-11.25-0.13-22.5-0.35-33.75-0.58
				l-16.88-0.45l-8.44-0.23L377.5,298.5z"/>
		</g>
		<polygon class="st40" points="388.4,257.68 449.85,165.94 484.06,165.04 435.55,254.28 409.85,255.04 		"/>
		<path class="st41" d="M514.19,164.74C514,166,480,252,480,252l79.81,0.06l32.68-84.94L538.28,165L514.19,164.74z"/>
		<ellipse class="st42" cx="181" cy="351.5" rx="54" ry="10.5"/>
		<ellipse class="st42" cx="154" cy="345.5" rx="28.29" ry="5.5"/>
		<ellipse class="st42" cx="847.5" cy="352.5" rx="54" ry="10.5"/>
		<ellipse class="st42" cx="875" cy="343.5" rx="28.29" ry="5.5"/>
	</g>
</g>
</svg>
